<svg xmlns="http://www.w3.org/2000/svg" xmlns:xlink="http://www.w3.org/1999/xlink" width="995" zoomAndPan="magnify" viewBox="0 0 746.25 113.999999" height="152" preserveAspectRatio="xMidYMid meet" version="1.0"><defs><g/><clipPath id="bc2a4f0b98"><path d="M 0 0.0585938 L 745.5 0.0585938 L 745.5 113.941406 L 0 113.941406 Z M 0 0.0585938 " clip-rule="nonzero"/></clipPath><clipPath id="d7bb6e5490"><path d="M 3.109375 0.0585938 L 95 0.0585938 L 95 112.445312 L 3.109375 112.445312 Z M 3.109375 0.0585938 " clip-rule="nonzero"/></clipPath></defs><g clip-path="url(#bc2a4f0b98)"><path fill="#ffffff" d="M 0 0.0585938 L 745.5 0.0585938 L 745.5 113.941406 L 0 113.941406 Z M 0 0.0585938 " fill-opacity="1" fill-rule="nonzero"/><path fill="#ffffff" d="M 0 0.0585938 L 745.5 0.0585938 L 745.5 113.941406 L 0 113.941406 Z M 0 0.0585938 " fill-opacity="1" fill-rule="nonzero"/></g><path fill="#ff5757" d="M 49.578125 105.371094 L 38.761719 98.199219 C 20.203125 85.558594 8.816406 64.613281 8.816406 42.410156 L 8.816406 28.066406 C 21.453125 26.242188 33.410156 20.890625 43.542969 12.46875 L 48.894531 7.683594 L 54.246094 12.46875 C 63.808594 20.890625 75.761719 26.242188 88.398438 28.066406 L 88.96875 28.066406 L 88.96875 42.410156 C 88.96875 64.613281 78.152344 85.558594 59.027344 98.199219 Z M 49.578125 105.371094 " fill-opacity="1" fill-rule="nonzero"/><g clip-path="url(#d7bb6e5490)"><path fill="#ff3131" d="M 35.6875 102.867188 C 15.308594 89.089844 3.238281 66.433594 3.238281 42.410156 L 3.238281 23.054688 L 8.019531 22.371094 C 19.519531 20.777344 30.449219 15.769531 39.898438 8.140625 L 49.007812 0.0585938 L 58.230469 8.253906 C 66.882812 15.769531 77.46875 20.664062 88.96875 22.371094 L 94.890625 22.371094 L 94.890625 42.410156 C 94.890625 66.886719 82.820312 89.429688 62.554688 102.75 L 49.804688 112.316406 Z M 35.6875 102.867188 " fill-opacity="1" fill-rule="nonzero"/></g><path fill="#ff5757" d="M 49.578125 105.371094 L 38.761719 98.199219 C 20.203125 85.558594 8.816406 64.613281 8.816406 42.410156 L 8.816406 28.066406 C 21.453125 26.242188 33.410156 20.890625 43.542969 12.46875 L 48.894531 7.683594 L 54.246094 12.46875 C 63.808594 20.890625 75.761719 26.242188 88.398438 28.066406 L 88.96875 28.066406 L 88.96875 42.410156 C 88.96875 64.613281 78.152344 85.558594 59.027344 98.199219 Z M 49.578125 105.371094 " fill-opacity="1" fill-rule="nonzero"/><path fill="#ffffff" d="M 46.617188 71.214844 C 46.617188 71.214844 46.046875 71.214844 46.617188 71.214844 C 44.792969 71.214844 43.65625 70.644531 42.402344 69.394531 L 28.628906 56.1875 C 26.804688 54.363281 26.804688 50.835938 28.628906 49.015625 C 30.449219 47.191406 33.980469 47.191406 35.800781 49.015625 L 45.933594 58.007812 L 63.351562 41.273438 C 65.175781 39.449219 68.703125 39.449219 70.523438 41.273438 C 72.347656 43.09375 72.347656 46.621094 70.523438 48.445312 L 49.578125 69.960938 C 49.007812 70.644531 47.753906 71.214844 46.617188 71.214844 Z M 46.617188 71.214844 " fill-opacity="1" fill-rule="nonzero"/><g fill="#ff5757" fill-opacity="1"><g transform="translate(103.540164, 72.845096)"><g><path d="M 16.390625 0.5 C 14.535156 0.5 12.707031 0.335938 10.90625 0.015625 C 9.113281 -0.296875 7.523438 -0.703125 6.140625 -1.203125 C 4.765625 -1.710938 3.773438 -2.21875 3.171875 -2.71875 L 3.171875 -13.265625 C 4.453125 -12.554688 5.878906 -11.914062 7.453125 -11.34375 C 9.035156 -10.769531 10.640625 -10.320312 12.265625 -10 C 13.898438 -9.6875 15.457031 -9.53125 16.9375 -9.53125 C 18.988281 -9.53125 20.015625 -10 20.015625 -10.9375 C 20.015625 -11.40625 19.800781 -11.800781 19.375 -12.125 C 18.957031 -12.445312 18.226562 -12.789062 17.1875 -13.15625 C 16.144531 -13.53125 14.664062 -14.003906 12.75 -14.578125 C 10.53125 -15.273438 8.640625 -16.007812 7.078125 -16.78125 C 5.515625 -17.5625 4.320312 -18.554688 3.5 -19.765625 C 2.675781 -20.972656 2.265625 -22.585938 2.265625 -24.609375 C 2.265625 -28.097656 3.660156 -30.898438 6.453125 -33.015625 C 9.242188 -35.140625 13.328125 -36.203125 18.703125 -36.203125 C 19.773438 -36.203125 20.925781 -36.160156 22.15625 -36.078125 C 23.382812 -35.992188 24.367188 -35.882812 25.109375 -35.75 L 31.3125 -31.5625 L 28.796875 -23.90625 L 15.890625 -27.171875 C 14.535156 -27.171875 13.859375 -26.71875 13.859375 -25.8125 C 13.859375 -25.101562 14.285156 -24.519531 15.140625 -24.0625 C 16.003906 -23.613281 17.5625 -23.003906 19.8125 -22.234375 C 22.800781 -21.222656 25.175781 -20.1875 26.9375 -19.125 C 28.707031 -18.070312 29.976562 -16.875 30.75 -15.53125 C 31.53125 -14.1875 31.921875 -12.585938 31.921875 -10.734375 C 31.921875 -7.378906 30.625 -4.664062 28.03125 -2.59375 C 25.445312 -0.53125 21.566406 0.5 16.390625 0.5 Z M 16.390625 0.5 "/></g></g></g><g fill="#ff5757" fill-opacity="1"><g transform="translate(137.567096, 72.845096)"><g><path d="M 11.09375 0 L 11.09375 -26.0625 L 1.015625 -25.5625 L 1.015625 -35.703125 L 32.515625 -35.703125 L 32.515625 -25.5625 L 22.1875 -26.0625 L 22.1875 -8.0625 L 22.734375 -3.03125 L 22.1875 0 Z M 11.09375 0 "/></g></g></g><g fill="#ff5757" fill-opacity="1"><g transform="translate(168.06492, 72.845096)"><g><path d="M 0.5 0 L 2.921875 -8.515625 L 2.921875 -14.921875 L 6.65625 -16.4375 L 13.71875 -35.640625 L 28.890625 -35.640625 L 37.515625 -13.0625 L 41.390625 -5.90625 L 41.390625 0 L 30.453125 0 L 27.9375 -7.515625 L 14.265625 -7.515625 L 12.09375 0 Z M 17.59375 -16.34375 L 25.15625 -16.34375 L 21.828125 -26.375 L 20.78125 -26.375 Z M 17.59375 -16.34375 "/></g></g></g><g fill="#ff5757" fill-opacity="1"><g transform="translate(209.955858, 72.845096)"><g><path d="M 4.03125 0 L 4.03125 -27.578125 L 3.03125 -32.671875 L 4.03125 -35.703125 L 22.1875 -35.703125 C 24.90625 -35.703125 27.238281 -35.265625 29.1875 -34.390625 C 31.144531 -33.515625 32.644531 -32.109375 33.6875 -30.171875 C 34.726562 -28.242188 35.25 -25.695312 35.25 -22.53125 C 35.25 -19.613281 34.757812 -17.210938 33.78125 -15.328125 C 32.8125 -13.441406 31.382812 -12.015625 29.5 -11.046875 L 30.359375 -10.34375 L 33.828125 -5.59375 L 36.703125 -3.03125 L 36.703125 0 L 23.34375 0 L 17.796875 -9.234375 L 15.125 -9.234375 L 15.125 -8.125 L 15.625 -3.078125 L 15.125 0 Z M 15.125 -18.65625 L 18.046875 -18.65625 C 19.222656 -18.65625 20.238281 -18.703125 21.09375 -18.796875 C 21.957031 -18.898438 22.625 -19.210938 23.09375 -19.734375 C 23.5625 -20.253906 23.796875 -21.101562 23.796875 -22.28125 C 23.796875 -23.53125 23.539062 -24.421875 23.03125 -24.953125 C 22.53125 -25.492188 21.832031 -25.820312 20.9375 -25.9375 C 20.050781 -26.0625 19.019531 -26.125 17.84375 -26.125 L 14.625 -26.125 Z M 15.125 -18.65625 "/></g></g></g><g fill="#ff5757" fill-opacity="1"><g transform="translate(247.15864, 72.845096)"><g/></g></g><g fill="#ff5757" fill-opacity="1"><g transform="translate(259.25711, 72.845096)"><g><path d="M 16.390625 0.5 C 14.535156 0.5 12.707031 0.335938 10.90625 0.015625 C 9.113281 -0.296875 7.523438 -0.703125 6.140625 -1.203125 C 4.765625 -1.710938 3.773438 -2.21875 3.171875 -2.71875 L 3.171875 -13.265625 C 4.453125 -12.554688 5.878906 -11.914062 7.453125 -11.34375 C 9.035156 -10.769531 10.640625 -10.320312 12.265625 -10 C 13.898438 -9.6875 15.457031 -9.53125 16.9375 -9.53125 C 18.988281 -9.53125 20.015625 -10 20.015625 -10.9375 C 20.015625 -11.40625 19.800781 -11.800781 19.375 -12.125 C 18.957031 -12.445312 18.226562 -12.789062 17.1875 -13.15625 C 16.144531 -13.53125 14.664062 -14.003906 12.75 -14.578125 C 10.53125 -15.273438 8.640625 -16.007812 7.078125 -16.78125 C 5.515625 -17.5625 4.320312 -18.554688 3.5 -19.765625 C 2.675781 -20.972656 2.265625 -22.585938 2.265625 -24.609375 C 2.265625 -28.097656 3.660156 -30.898438 6.453125 -33.015625 C 9.242188 -35.140625 13.328125 -36.203125 18.703125 -36.203125 C 19.773438 -36.203125 20.925781 -36.160156 22.15625 -36.078125 C 23.382812 -35.992188 24.367188 -35.882812 25.109375 -35.75 L 31.3125 -31.5625 L 28.796875 -23.90625 L 15.890625 -27.171875 C 14.535156 -27.171875 13.859375 -26.71875 13.859375 -25.8125 C 13.859375 -25.101562 14.285156 -24.519531 15.140625 -24.0625 C 16.003906 -23.613281 17.5625 -23.003906 19.8125 -22.234375 C 22.800781 -21.222656 25.175781 -20.1875 26.9375 -19.125 C 28.707031 -18.070312 29.976562 -16.875 30.75 -15.53125 C 31.53125 -14.1875 31.921875 -12.585938 31.921875 -10.734375 C 31.921875 -7.378906 30.625 -4.664062 28.03125 -2.59375 C 25.445312 -0.53125 21.566406 0.5 16.390625 0.5 Z M 16.390625 0.5 "/></g></g></g><g fill="#ff5757" fill-opacity="1"><g transform="translate(293.284041, 72.845096)"><g><path d="M 4.03125 0 L 3.03125 -3.03125 L 4.03125 -8.0625 L 4.03125 -35.703125 L 30 -35.703125 L 32.515625 -34.1875 L 29.1875 -25.609375 L 24.65625 -26.125 L 15.234375 -26.125 L 15.234375 -22.078125 L 27.6875 -22.078125 L 27.6875 -13.765625 L 20.71875 -13.765625 L 15.234375 -14.265625 L 15.234375 -9.578125 L 29.1875 -9.578125 L 35.1875 -3.234375 L 32.21875 0 Z M 4.03125 0 "/></g></g></g><g fill="#ff5757" fill-opacity="1"><g transform="translate(327.462066, 72.845096)"><g><path d="M 19.859375 0.5 C 17.546875 0.5 15.300781 0.234375 13.125 -0.296875 C 10.957031 -0.835938 9.015625 -1.78125 7.296875 -3.125 C 5.585938 -4.46875 4.226562 -6.332031 3.21875 -8.71875 C 2.21875 -11.101562 1.71875 -14.144531 1.71875 -17.84375 C 1.71875 -21.175781 2.203125 -24.007812 3.171875 -26.34375 C 4.148438 -28.675781 5.476562 -30.566406 7.15625 -32.015625 C 8.84375 -33.460938 10.773438 -34.519531 12.953125 -35.1875 C 15.140625 -35.863281 17.441406 -36.203125 19.859375 -36.203125 C 21.578125 -36.203125 23.25 -36.066406 24.875 -35.796875 C 26.507812 -35.523438 27.695312 -35.222656 28.4375 -34.890625 L 34.53125 -29.796875 L 29.5 -21.484375 L 19.859375 -25.921875 C 18.722656 -25.921875 17.65625 -25.609375 16.65625 -24.984375 C 15.664062 -24.359375 14.859375 -23.445312 14.234375 -22.25 C 13.617188 -21.0625 13.3125 -19.59375 13.3125 -17.84375 C 13.3125 -15.625 13.65625 -13.914062 14.34375 -12.71875 C 15.03125 -11.53125 16.019531 -10.71875 17.3125 -10.28125 C 18.613281 -9.84375 20.15625 -9.625 21.9375 -9.625 C 23.644531 -9.625 25.265625 -9.800781 26.796875 -10.15625 C 28.328125 -10.507812 29.679688 -10.921875 30.859375 -11.390625 C 32.035156 -11.859375 32.925781 -12.265625 33.53125 -12.609375 L 33.53125 -2.515625 C 32.851562 -2.179688 31.898438 -1.769531 30.671875 -1.28125 C 29.453125 -0.789062 27.941406 -0.367188 26.140625 -0.015625 C 24.347656 0.328125 22.253906 0.5 19.859375 0.5 Z M 19.859375 0.5 "/></g></g></g><g fill="#ff5757" fill-opacity="1"><g transform="translate(363.505422, 72.845096)"><g><path d="M 19.109375 0.5 C 13.222656 0.5 8.984375 -0.679688 6.390625 -3.046875 C 3.804688 -5.421875 2.515625 -9.226562 2.515625 -14.46875 L 2.515625 -27.578125 L 2.578125 -32.671875 L 2.515625 -35.703125 L 13.8125 -35.703125 L 13.8125 -17 C 13.8125 -15.445312 13.925781 -14.070312 14.15625 -12.875 C 14.394531 -11.6875 14.898438 -10.753906 15.671875 -10.078125 C 16.453125 -9.410156 17.628906 -9.078125 19.203125 -9.078125 C 20.816406 -9.078125 22.007812 -9.378906 22.78125 -9.984375 C 23.5625 -10.585938 24.066406 -11.476562 24.296875 -12.65625 C 24.535156 -13.832031 24.65625 -15.28125 24.65625 -17 L 24.65625 -35.703125 L 35.703125 -35.703125 L 35.703125 -14.46875 C 35.703125 -11.039062 35.144531 -8.222656 34.03125 -6.015625 C 32.925781 -3.816406 31.160156 -2.179688 28.734375 -1.109375 C 26.316406 -0.0351562 23.109375 0.5 19.109375 0.5 Z M 19.109375 0.5 "/></g></g></g><g fill="#ff5757" fill-opacity="1"><g transform="translate(401.7164, 72.845096)"><g><path d="M 4.03125 0 L 4.03125 -27.578125 L 3.03125 -32.671875 L 4.03125 -35.703125 L 22.1875 -35.703125 C 24.90625 -35.703125 27.238281 -35.265625 29.1875 -34.390625 C 31.144531 -33.515625 32.644531 -32.109375 33.6875 -30.171875 C 34.726562 -28.242188 35.25 -25.695312 35.25 -22.53125 C 35.25 -19.613281 34.757812 -17.210938 33.78125 -15.328125 C 32.8125 -13.441406 31.382812 -12.015625 29.5 -11.046875 L 30.359375 -10.34375 L 33.828125 -5.59375 L 36.703125 -3.03125 L 36.703125 0 L 23.34375 0 L 17.796875 -9.234375 L 15.125 -9.234375 L 15.125 -8.125 L 15.625 -3.078125 L 15.125 0 Z M 15.125 -18.65625 L 18.046875 -18.65625 C 19.222656 -18.65625 20.238281 -18.703125 21.09375 -18.796875 C 21.957031 -18.898438 22.625 -19.210938 23.09375 -19.734375 C 23.5625 -20.253906 23.796875 -21.101562 23.796875 -22.28125 C 23.796875 -23.53125 23.539062 -24.421875 23.03125 -24.953125 C 22.53125 -25.492188 21.832031 -25.820312 20.9375 -25.9375 C 20.050781 -26.0625 19.019531 -26.125 17.84375 -26.125 L 14.625 -26.125 Z M 15.125 -18.65625 "/></g></g></g><g fill="#ff5757" fill-opacity="1"><g transform="translate(438.919181, 72.845096)"><g><path d="M 4.03125 0 L 3.03125 -3.03125 L 4.03125 -8.0625 L 4.03125 -35.703125 L 30 -35.703125 L 32.515625 -34.1875 L 29.1875 -25.609375 L 24.65625 -26.125 L 15.234375 -26.125 L 15.234375 -22.078125 L 27.6875 -22.078125 L 27.6875 -13.765625 L 20.71875 -13.765625 L 15.234375 -14.265625 L 15.234375 -9.578125 L 29.1875 -9.578125 L 35.1875 -3.234375 L 32.21875 0 Z M 4.03125 0 "/></g></g></g><g fill="#ff5757" fill-opacity="1"><g transform="translate(474.105573, 72.845096)"><g/></g></g><g fill="#ff5757" fill-opacity="1"><g transform="translate(486.204031, 72.845096)"><g><path d="M 3.53125 0 L 3.53125 -27.625 L 3.03125 -32.671875 L 3.53125 -35.703125 L 14.671875 -35.703125 L 14.671875 0 Z M 3.53125 0 "/></g></g></g><g fill="#ff5757" fill-opacity="1"><g transform="translate(503.898062, 72.845096)"><g><path d="M 4.03125 0 L 4.03125 -27.578125 L 3.03125 -32.625 L 4.03125 -35.703125 L 21.125 -35.703125 C 23.507812 -35.703125 25.816406 -35.472656 28.046875 -35.015625 C 30.285156 -34.566406 32.285156 -33.71875 34.046875 -32.46875 C 35.816406 -31.226562 37.222656 -29.445312 38.265625 -27.125 C 39.304688 -24.800781 39.828125 -21.789062 39.828125 -18.09375 C 39.828125 -14.40625 39.296875 -11.375 38.234375 -9 C 37.179688 -6.632812 35.765625 -4.796875 33.984375 -3.484375 C 32.203125 -2.171875 30.203125 -1.257812 27.984375 -0.75 C 25.765625 -0.25 23.476562 0 21.125 0 Z M 15.234375 -9.578125 L 19.0625 -9.578125 C 21.039062 -9.578125 22.710938 -9.796875 24.078125 -10.234375 C 25.441406 -10.671875 26.472656 -11.503906 27.171875 -12.734375 C 27.878906 -13.960938 28.234375 -15.75 28.234375 -18.09375 C 28.234375 -20.488281 27.867188 -22.25 27.140625 -23.375 C 26.421875 -24.5 25.378906 -25.238281 24.015625 -25.59375 C 22.660156 -25.945312 21.007812 -26.125 19.0625 -26.125 L 15.234375 -26.125 Z M 15.234375 -9.578125 "/></g></g></g><g fill="#ff5757" fill-opacity="1"><g transform="translate(545.738548, 72.845096)"><g><path d="M 4.03125 0 L 3.03125 -3.03125 L 4.03125 -8.0625 L 4.03125 -35.703125 L 30 -35.703125 L 32.515625 -34.1875 L 29.1875 -25.609375 L 24.65625 -26.125 L 15.234375 -26.125 L 15.234375 -22.078125 L 27.6875 -22.078125 L 27.6875 -13.765625 L 20.71875 -13.765625 L 15.234375 -14.265625 L 15.234375 -9.578125 L 29.1875 -9.578125 L 35.1875 -3.234375 L 32.21875 0 Z M 4.03125 0 "/></g></g></g><g fill="#ff5757" fill-opacity="1"><g transform="translate(580.924939, 72.845096)"><g><path d="M 4.03125 0 L 4.03125 -27.578125 L 3.03125 -32.625 L 4.03125 -35.640625 L 14.171875 -35.640625 L 24.359375 -22.9375 L 26.78125 -18.75 L 27.28125 -18.75 L 27.28125 -35.640625 L 38.921875 -35.640625 L 38.921875 -32.625 L 38.421875 -27.578125 L 38.421875 0 L 28.390625 0 L 15.734375 -17.25 L 15.234375 -17.25 L 15.234375 -14.21875 L 15.734375 0 Z M 4.03125 0 "/></g></g></g><g fill="#ff5757" fill-opacity="1"><g transform="translate(622.86626, 72.845096)"><g><path d="M 11.09375 0 L 11.09375 -26.0625 L 1.015625 -25.5625 L 1.015625 -35.703125 L 32.515625 -35.703125 L 32.515625 -25.5625 L 22.1875 -26.0625 L 22.1875 -8.0625 L 22.734375 -3.03125 L 22.1875 0 Z M 11.09375 0 "/></g></g></g><g fill="#ff5757" fill-opacity="1"><g transform="translate(656.389116, 72.845096)"><g><path d="M 3.53125 0 L 3.53125 -27.625 L 3.03125 -32.671875 L 3.53125 -35.703125 L 14.671875 -35.703125 L 14.671875 0 Z M 3.53125 0 "/></g></g></g><g fill="#ff5757" fill-opacity="1"><g transform="translate(674.083124, 72.845096)"><g><path d="M 11.09375 0 L 11.09375 -26.0625 L 1.015625 -25.5625 L 1.015625 -35.703125 L 32.515625 -35.703125 L 32.515625 -25.5625 L 22.1875 -26.0625 L 22.1875 -8.0625 L 22.734375 -3.03125 L 22.1875 0 Z M 11.09375 0 "/></g></g></g><g fill="#ff5757" fill-opacity="1"><g transform="translate(707.605935, 72.845096)"><g><path d="M 13.265625 0 L 13.265625 -14.625 L 0.75 -32.671875 L 0.75 -35.703125 L 13.40625 -35.703125 L 18.453125 -25.3125 L 19.46875 -25.3125 L 24.453125 -35.703125 L 37.0625 -35.703125 L 37.0625 -32.671875 L 24.203125 -14.3125 L 24.5 -9.234375 L 24.5 0 Z M 13.265625 0 "/></g></g></g></svg>